<svg width="12" height="12" viewBox="0 0 12 12" fill="none" xmlns="http://www.w3.org/2000/svg">
<path d="M5.5995 0.522522H3.41842C1.62467 0.522522 0.5 1.79244 0.5 3.59027V8.44011C0.5 10.2379 1.61942 11.5079 3.41842 11.5079H8.56575C10.3653 11.5079 11.4847 10.2379 11.4847 8.44011V6.09044" stroke="#313131" stroke-linecap="round" stroke-linejoin="round"/>
<path fill-rule="evenodd" clip-rule="evenodd" d="M4.04525 5.26612L8.40449 0.906875C8.94758 0.364375 9.82783 0.364375 10.3709 0.906875L11.0808 1.61679C11.6239 2.15987 11.6239 3.04071 11.0808 3.58321L6.70058 7.96346C6.46316 8.20087 6.14116 8.33446 5.80516 8.33446H3.62L3.67483 6.12946C3.683 5.80512 3.81541 5.49596 4.04525 5.26612Z" stroke="#313131" stroke-linecap="round" stroke-linejoin="round"/>
<path d="M7.74207 1.58038L10.4056 4.24388" stroke="#313131" stroke-linecap="round" stroke-linejoin="round"/>
</svg>
